<?xml version="1.0" encoding="UTF-8"?>
<svg width="17px" height="16px" viewBox="0 0 17 16" version="1.1" xmlns="http://www.w3.org/2000/svg" xmlns:xlink="http://www.w3.org/1999/xlink">
    <!-- Generator: Sketch 43.1 (39012) - http://www.bohemiancoding.com/sketch -->
    <title>douban</title>
    <desc>Created with Sketch.</desc>
    <defs>
        <path d="M17.4706655,248.604953 L33.0824421,248.604953 L33.0824421,247 L17.4706655,247 L17.4706655,248.604953 Z M19.0583386,250.48926 L31.5507221,250.48926 L31.5507221,256.898375 L29.2257828,256.898375 L30.4900791,257.738085 C29.892696,259.062449 29.2722733,260.20085 28.6263425,261.152467 L33.4424353,261.152467 L33.4424353,262.775522 L17,262.775522 L17,261.152467 L21.9185366,261.152467 C21.3153936,259.827692 20.6789255,258.68353 20.0083094,257.71916 L21.2726058,256.898375 L19.0583386,256.898375 L19.0583386,250.48926 Z M20.8019403,255.284371 L29.7980692,255.284371 L29.7980692,252.140704 L20.8019403,252.140704 L20.8019403,255.284371 Z M28.9217427,256.898375 L21.5951598,256.898375 C22.3826193,258.22315 23.0993145,259.641318 23.7452453,261.152467 L26.7346294,261.152467 C27.6516865,259.715785 28.3799014,258.298029 28.9217427,256.898375 Z" id="path-1"></path>
    </defs>
    <g id="注册登录" stroke="none" stroke-width="1" fill="none" fill-rule="evenodd">
        <g id="首页" transform="translate(-1582.000000, -1037.000000)">
            <g id="分享" transform="translate(1565.000000, 790.000000)">
                <mask id="mask-2" fill="white">
                    <use xlink:href="#path-1"></use>
                </mask>
                <use id="douban" fill="#474747" xlink:href="#path-1"></use>
            </g>
        </g>
    </g>
</svg>