<?xml version="1.0" encoding="UTF-8"?>
<svg width="101px" height="101px" viewBox="0 0 101 101" version="1.1" xmlns="http://www.w3.org/2000/svg" xmlns:xlink="http://www.w3.org/1999/xlink">
    <!-- Generator: Sketch 47.1 (45422) - http://www.bohemiancoding.com/sketch -->
    <title>erweima_jiao</title>
    <desc>Created with Sketch.</desc>
    <defs></defs>
    <g id="11月" stroke="none" stroke-width="1" fill="none" fill-rule="evenodd">
        <g id="我的账号-实名认证-copy-7" transform="translate(-1440.000000, -141.000000)" fill="#FF503F">
            <path d="M1532.47461,242 L1540.52102,242 L1540.52102,230.910836 L1529.45618,230.910836 L1529.45618,238.845215 L1532.47461,242 Z M1469.04699,178.876672 L1477.53612,178.876672 L1477.53612,149.873687 L1448.59674,149.873687 L1448.59674,158.514664 L1440.08545,150.0401 L1440.08545,141.343693 L1485.96257,141.343693 C1485.96257,156.954164 1486.04741,171.796687 1486.04741,187.406666 C1483.25151,187.42225 1477.64532,187.437911 1477.64532,187.437911 L1469.04699,178.876672 Z M1531.15826,216.409651 L1531.15826,195.937028 L1540.52102,195.937028 L1540.52102,226.64584 L1517.14441,226.64584 L1511.58213,221.188599 L1511.58213,204.467021 L1503.07035,204.467021 L1503.07035,212.675781 L1494.56492,204.240967 C1494.56492,204.240967 1494.55907,198.434034 1494.55907,195.937028 L1520.09342,195.937028 L1520.09342,216.409651 L1531.15826,216.409651 Z M1494.55907,187.406666 L1494.55907,141.343693 L1540.52102,141.343693 L1540.52102,187.406666 L1494.55907,187.406666 Z M1503.07035,178.876672 L1532.00974,178.876672 L1532.00974,149.873687 L1503.07035,149.873687 L1503.07035,178.876672 Z M1509.02857,172.905357 L1509.02857,155.845002 L1526.05164,155.845002 L1526.05164,172.905357 L1509.02857,172.905357 Z M1463.06643,172.905357 L1454.55496,164.441895 L1454.55496,155.845002 L1471.5779,155.845002 L1471.5779,172.905357 L1463.06643,172.905357 Z" id="erweima_jiao"></path>
        </g>
    </g>
</svg>