<?xml version="1.0" encoding="UTF-8"?>
<svg width="18px" height="12px" viewBox="0 0 18 12" version="1.1" xmlns="http://www.w3.org/2000/svg" xmlns:xlink="http://www.w3.org/1999/xlink">
    <!-- Generator: Sketch 43.1 (39012) - http://www.bohemiancoding.com/sketch -->
    <title>mail</title>
    <desc>Created with Sketch.</desc>
    <defs></defs>
    <g id="注册登录" stroke="none" stroke-width="1" fill="none" fill-rule="evenodd">
        <g id="首页" transform="translate(-1245.000000, -776.000000)" fill="#474747">
            <g id="联系方式" transform="translate(1229.000000, 621.000000)">
                <path d="M24.9853231,161.995195 L16.6169594,155.027119 C16.6622993,155.018642 16.7032839,155 16.749379,155 L33.2212671,155 C33.2683189,155 33.3090517,155.018893 33.3543916,155.027119 L24.9853231,161.995195 Z M33.9701427,155.748352 L33.9701427,166.223346 C33.9701427,166.28805 33.9490462,166.345736 33.933765,166.405585 L27.9922294,160.466994 L33.9248028,155.525635 C33.9485678,155.597132 33.9701427,155.669811 33.9701427,155.748352 Z M16.0460699,155.524906 L21.9808336,160.466742 L16.0373594,166.405836 C16.0225566,166.345987 16,166.288553 16,166.223119 L16,155.748352 C16,155.668604 16.023035,155.596881 16.0460699,155.524906 Z M27.413586,160.947799 L33.4050937,166.934616 C33.344951,166.95039 33.2864951,166.971698 33.2214937,166.971698 L16.749379,166.971698 C16.685586,166.971698 16.6271301,166.950138 16.5681958,166.934616 L22.5584951,160.94878 L24.7457091,162.769962 C24.8150657,162.828377 24.9004336,162.856478 24.9853231,162.856478 C25.0709175,162.856478 25.155807,162.828377 25.2244336,162.769962 L27.413586,160.947799 Z" id="mail"></path>
            </g>
        </g>
    </g>
</svg>