<?xml version="1.0" encoding="UTF-8"?>
<svg width="84px" height="84px" viewBox="0 0 84 84" version="1.1" xmlns="http://www.w3.org/2000/svg" xmlns:xlink="http://www.w3.org/1999/xlink">
    <!-- Generator: Sketch 47.1 (45422) - http://www.bohemiancoding.com/sketch -->
    <title>pc</title>
    <desc>Created with Sketch.</desc>
    <defs></defs>
    <g id="11月" stroke="none" stroke-width="1" fill="none" fill-rule="evenodd">
        <g id="我的账号-实名认证-copy-4" transform="translate(-1456.000000, -141.000000)" fill="#FF503F">
            <path d="M1523,157 L1523,192 L1482.66997,192 L1473,182.330176 L1473,157 L1523,157 Z M1531.35162,141 C1536.12825,141 1540,144.88096 1540,149.66619 L1540,198.418803 C1540,203.204429 1536.12825,207.083411 1531.35162,207.083411 L1510.02758,207.083411 L1510.02758,219.042925 L1524.9878,219.042925 C1526.63318,219.042925 1527.96747,220.376581 1527.96747,222.021463 C1527.96747,223.666212 1526.63318,225 1524.9878,225 L1515.96014,225 L1492.12595,201.176317 L1534.15346,201.176317 L1534.15346,147.147634 L1461.97583,147.147634 L1461.97583,171.036068 L1456,165.062641 L1456,149.664608 C1456,144.878982 1459.87175,141 1464.64785,141 L1531.35162,141 Z" id="pc"></path>
        </g>
    </g>
</svg>