<?xml version="1.0" encoding="UTF-8"?>
<svg width="20px" height="20px" viewBox="0 0 20 20" version="1.1" xmlns="http://www.w3.org/2000/svg" xmlns:xlink="http://www.w3.org/1999/xlink">
    <!-- Generator: Sketch 43.1 (39012) - http://www.bohemiancoding.com/sketch -->
    <title>phone</title>
    <desc>Created with Sketch.</desc>
    <defs></defs>
    <g id="注册登录" stroke="none" stroke-width="1" fill="none" fill-rule="evenodd">
        <g id="首页" transform="translate(-1244.000000, -638.000000)" fill="#474747">
            <g id="联系方式" transform="translate(1229.000000, 621.000000)">
                <path d="M29.6666667,29 C28.3333333,30.3333333 28.3333333,31.6666667 27,31.6666667 C25.6666667,31.6666667 24.3333333,30.3333333 23,29 C21.6666667,27.6666667 20.3333333,26.3333333 20.3333333,25 C20.3333333,23.6666667 21.6666667,23.6666667 23,22.3333333 C24.3333333,21 20.3333333,17 19,17 C17.6666667,17 15,21 15,21 C15,23.6666667 17.7393229,29.0726563 20.3333333,31.6666667 C22.9273438,34.2606771 28.3333333,37 31,37 C31,37 35,34.3333333 35,33 C35,31.6666667 31,27.6666667 29.6666667,29" id="phone"></path>
            </g>
        </g>
    </g>
</svg>