<?xml version="1.0" encoding="UTF-8"?>
<svg width="17px" height="19px" viewBox="0 0 17 19" version="1.1" xmlns="http://www.w3.org/2000/svg" xmlns:xlink="http://www.w3.org/1999/xlink">
    <!-- Generator: Sketch 43.1 (39012) - http://www.bohemiancoding.com/sketch -->
    <title>qq</title>
    <desc>Created with Sketch.</desc>
    <defs>
        <path d="M19.3073177,68.7326852 C19.3073177,69.027537 19.0543577,68.8093889 18.8462777,69.3783333 C18.7534577,69.6320185 18.8894577,69.7928148 18.8462777,70.7597037 C18.8347177,71.0193704 17.7511377,72.1963148 17.3217177,73.4186481 C16.8946777,74.6314815 16.8361977,75.8981481 17.4947777,76.3960185 C17.8357977,76.6539259 18.1645777,76.200037 18.4134577,75.7461481 C18.6449977,75.3235741 18.8075177,74.9013519 18.8462777,75.0522963 C18.8812977,75.1891667 18.9248177,75.3316667 18.9771777,75.4776852 C19.1883177,76.0649259 19.5419177,76.7151481 20.0549777,77.3231481 C20.1590177,77.4466481 19.4205377,77.6735926 18.9771777,78.4532963 C18.5341577,79.233 19.1043377,80.6506111 21.3071977,80.6506111 C24.1489177,80.6506111 24.7843777,79.6168704 24.8421777,79.6210926 C25.0539977,79.6376296 25.0682777,79.6210926 25.2930177,79.6210926 C25.5673977,79.6210926 25.4538377,79.643963 25.7088377,79.6210926 C25.7724177,79.615463 26.1039177,79.8818148 26.6322777,80.1478148 C27.2425777,80.4549815 28.1146777,80.7625 29.1397777,80.6506111 C32.3979977,80.2962963 31.8998977,79.1665 31.6438777,78.4532963 C31.3769777,77.7091296 30.4331377,77.3600926 30.4749577,77.3122407 C31.2552577,76.4199444 31.3790177,75.8721111 31.6438777,75.0522963 C31.6965777,74.8893889 31.9002377,75.3172407 32.1627177,75.7450926 C32.4428777,76.2025 32.7903577,76.6595556 33.0909177,76.3960185 C33.3333377,76.1831481 33.8185177,75.297537 33.3333377,73.4186481 C32.8481577,71.5401111 31.9100977,71.1115556 31.9301577,70.7597037 C31.9729977,70.0264444 31.9485177,69.5116852 31.9124777,69.3783333 C31.7390777,68.7326852 31.3769777,68.8751852 31.3769777,68.7326852 C31.3769777,65.0143148 28.6749977,62 25.3419777,62 C22.0092977,62 19.3073177,65.0143148 19.3073177,68.7326852 Z" id="path-1"></path>
    </defs>
    <g id="注册登录" stroke="none" stroke-width="1" fill="none" fill-rule="evenodd">
        <g id="首页" transform="translate(-1246.000000, -683.000000)">
            <g id="联系方式" transform="translate(1229.000000, 621.000000)">
                <mask id="mask-2" fill="white">
                    <use xlink:href="#path-1"></use>
                </mask>
                <use id="qq" fill="#474747" xlink:href="#path-1"></use>
            </g>
        </g>
    </g>
</svg>