<?xml version="1.0" encoding="UTF-8"?>
<svg width="20px" height="19px" viewBox="0 0 20 19" version="1.1" xmlns="http://www.w3.org/2000/svg" xmlns:xlink="http://www.w3.org/1999/xlink">
    <!-- Generator: Sketch 43.1 (39012) - http://www.bohemiancoding.com/sketch -->
    <title>qqkongjian</title>
    <desc>Created with Sketch.</desc>
    <defs>
        <path d="M22.6977666,138.113141 C22.6977666,138.113141 16.2126372,138.572976 16.0061647,139.093445 C15.7996922,139.613913 20.8482778,143.851265 20.8482778,143.851265 C20.8482778,143.851265 19.3566981,150.287902 19.7054929,150.570042 C20.0535866,150.852532 25.6907415,147.397812 25.6907415,147.397812 C25.6907415,147.397812 31.2840779,150.972047 31.6763406,150.570042 C31.9599336,150.279491 31.2353518,146.923957 30.8118904,145.069547 C30.809086,145.056579 31.1284348,144.948279 31.4519902,144.886244 C31.7478523,144.830166 32.0181245,144.691725 32.0153201,144.68051 C32.0142685,144.675953 30.6678154,144.983328 26.7129381,145.069547 C22.7580608,145.155415 21.6457735,144.956691 21.6457735,144.956691 L27.2184276,140.775067 C27.2184276,140.775067 25.4863723,140.455776 24.1711179,140.33591 C22.2911315,140.164874 20.6435581,140.16908 20.8482778,140.116507 C21.1746376,140.033092 23.4591559,139.817194 25.6907415,139.897105 C27.7284743,139.970005 29.7437721,140.33591 29.7437721,140.33591 L24.1711179,144.341592 C24.1711179,144.341592 25.3878684,144.530502 26.3988475,144.569757 C28.3240546,144.643709 30.672723,144.589734 30.6678154,144.569757 C30.5956026,144.263083 30.5328546,143.851265 30.5328546,143.851265 C30.5328546,143.851265 35.554448,139.61111 35.3753182,139.093445 C35.1958379,138.57578 28.6833658,138.113141 28.6833658,138.113141 C28.6833658,138.113141 26.2740526,132 25.6907415,132 C25.1074304,132 22.6977666,138.113141 22.6977666,138.113141 Z" id="path-1"></path>
    </defs>
    <g id="注册登录" stroke="none" stroke-width="1" fill="none" fill-rule="evenodd">
        <g id="首页" transform="translate(-1581.000000, -922.000000)">
            <g id="分享" transform="translate(1565.000000, 790.000000)">
                <mask id="mask-2" fill="white">
                    <use xlink:href="#path-1"></use>
                </mask>
                <use id="qqkongjian" fill="#474747" xlink:href="#path-1"></use>
            </g>
        </g>
    </g>
</svg>