<?xml version="1.0" encoding="UTF-8"?>
<svg width="25px" height="15px" viewBox="0 0 25 15" version="1.1" xmlns="http://www.w3.org/2000/svg" xmlns:xlink="http://www.w3.org/1999/xlink">
    <!-- Generator: Sketch 43.1 (39012) - http://www.bohemiancoding.com/sketch -->
    <title>renren</title>
    <desc>Created with Sketch.</desc>
    <defs>
        <path d="M29.5804418,284 C29.5862859,283.99955 29.5804418,288.425737 29.5804418,289.767618 C29.5804418,291.10995 29.2473315,291.878666 28.0920097,293.461052 C26.9366878,295.044337 25.4235309,295.741127 25.4172373,295.733035 C25.4118428,295.726741 25.4064483,295.720448 25.4015034,295.714154 C25.1466133,295.658411 23.8411446,295.005227 22.6035566,293.330235 C21.5003816,291.836858 21.2837026,291.10995 21.2837026,289.876407 C21.2837026,288.642416 21.2823539,284.002248 21.2837026,284.002248 C22.9236302,284.281413 24.3725027,285.131047 25.4262281,286.342561 C24.321255,287.612966 23.6509885,289.282113 23.6509885,291.10995 C23.6509885,292.857318 24.381044,294.466676 25.4015034,295.714154 C25.4257786,295.719099 25.4406135,295.719099 25.4451089,295.714154 C26.4696141,294.464878 27.2014678,292.862712 27.2014678,291.10995 C27.2014678,289.282113 26.5307518,287.612966 25.4262281,286.342561 C26.4822013,285.12745 27.9360187,284.277367 29.5804418,284 Z M18.9290038,284 C18.9352974,284.00045 18.9290038,288.425737 18.9290038,289.767618 C18.9290038,291.10995 18.5958935,291.878666 17.4410212,293.461052 C16.2856994,295.044337 14.6538634,295.733934 14.6471203,295.725842 C13.6185692,294.475667 13,292.865859 13,291.10995 C13,287.534296 15.5650842,284.566872 18.9290038,284 Z M31.9351406,289.876407 C31.9351406,288.642416 31.9333424,284.002248 31.9351406,284.002248 C35.2932161,284.574065 37.8524563,287.538342 37.8524563,291.10995 C37.8524563,292.862712 37.2361348,294.469374 36.21118,295.71865 C36.1626295,295.778439 34.6103625,295.164365 33.2545451,293.330235 C32.1513701,291.836858 31.9351406,291.10995 31.9351406,289.876407 Z M29.4406344,295.674145 C30.2318276,294.599741 30.7519472,293.324391 30.7519472,293.324391 C30.7519472,293.324391 31.4132228,294.729658 32.123948,295.674145 C32.8342237,296.619531 33.8955914,297.574357 33.8627748,297.590541 C32.923233,298.055816 31.8677093,298.317 30.7519472,298.317 C29.6429281,298.317 28.5932485,298.058963 27.6577525,297.599082 C27.6181929,297.579302 28.6656247,296.727421 29.4406344,295.674145 Z M18.7896459,295.674145 C19.5808391,294.599741 20.1005091,293.324391 20.1005091,293.324391 C20.1005091,293.324391 20.7622343,294.729658 21.47251,295.674145 C22.1832352,296.619531 23.2446029,297.574357 23.2117864,297.590541 C22.2722445,298.055816 21.2167209,298.317 20.1005091,298.317 C18.9914901,298.317 17.9418105,298.058963 17.0063145,297.599082 C16.9667548,297.579302 18.0141867,296.727421 18.7896459,295.674145 Z" id="path-1"></path>
    </defs>
    <g id="注册登录" stroke="none" stroke-width="1" fill="none" fill-rule="evenodd">
        <g id="首页" transform="translate(-1578.000000, -1074.000000)">
            <g id="分享" transform="translate(1565.000000, 790.000000)">
                <mask id="mask-2" fill="white">
                    <use xlink:href="#path-1"></use>
                </mask>
                <use id="renren" fill="#474747" xlink:href="#path-1"></use>
            </g>
        </g>
    </g>
</svg>