<?xml version="1.0" encoding="UTF-8"?>
<svg width="47px" height="45px" viewBox="0 0 47 45" version="1.1" xmlns="http://www.w3.org/2000/svg" xmlns:xlink="http://www.w3.org/1999/xlink">
    <!-- Generator: Sketch 47.1 (45422) - http://www.bohemiancoding.com/sketch -->
    <title>saoyisao_icon</title>
    <desc>Created with Sketch.</desc>
    <defs></defs>
    <g id="11月" stroke="none" stroke-width="1" fill="none" fill-rule="evenodd">
        <g id="我的账号-实名认证-copy-4" transform="translate(-733.000000, -729.000000)" fill="#FF503F">
            <path d="M778.3213,753.230561 L734.6787,753.230561 C733.752012,753.230561 733,752.455233 733,751.5 C733,750.544497 733.752012,749.769101 734.6787,749.769101 L778.3213,749.769101 C779.249496,749.769101 780,750.544497 780,751.5 C780,752.455233 779.249496,753.230561 778.3213,753.230561 Z M773.285527,774 L763.214309,774 C762.286113,774 761.535609,773.226159 761.535609,772.269101 C761.535609,771.312042 762.286113,770.538202 763.214309,770.538202 L773.285527,770.538202 C774.212215,770.538202 774.964227,769.762873 774.964227,768.80764 L774.964227,760.15382 C774.964227,759.196762 775.714403,758.422921 776.642927,758.422921 C777.571124,758.422921 778.3213,759.196762 778.3213,760.15382 L778.3213,768.80764 C778.3213,771.670162 776.061985,774 773.285527,774 Z M748.106991,774 L739.714145,774 C736.938015,774 734.6787,771.670162 734.6787,768.80764 L734.6787,760.15382 C734.6787,759.196762 735.430647,758.422921 736.357073,758.422921 C737.283761,758.422921 738.035773,759.196762 738.035773,760.15382 L738.035773,768.80764 C738.035773,769.762873 738.789293,770.538202 739.714145,770.538202 L748.106991,770.538202 C749.033679,770.538202 749.785691,771.312042 749.785691,772.269101 C749.785691,773.226159 749.033679,774 748.106991,774 Z M736.357073,744.576741 C735.430647,744.576741 734.6787,743.801413 734.6787,742.84618 L734.6787,734.19236 C734.6787,731.329568 736.938015,729 739.714145,729 L748.106991,729 C749.033679,729 749.785691,729.775396 749.785691,730.730899 C749.785691,731.686065 749.033679,732.46146 748.106991,732.46146 L739.714145,732.46146 C738.789293,732.46146 738.035773,733.238682 738.035773,734.19236 L738.035773,742.84618 C738.035773,743.801413 737.283761,744.576741 736.357073,744.576741 Z M776.642927,744.576741 C775.714403,744.576741 774.964227,743.801413 774.964227,742.84618 L774.964227,734.19236 C774.964227,733.238682 774.212215,732.46146 773.285527,732.46146 L763.214309,732.46146 C762.286113,732.46146 761.535609,731.686065 761.535609,730.730899 C761.535609,729.775396 762.286113,729 763.214309,729 L773.285527,729 C776.061985,729 778.3213,731.329568 778.3213,734.19236 L778.3213,742.84618 C778.3213,743.801413 777.571124,744.576741 776.642927,744.576741 Z" id="saoyisao_icon"></path>
        </g>
    </g>
</svg>