<?xml version="1.0" encoding="UTF-8"?>
<svg width="13px" height="20px" viewBox="0 0 13 20" version="1.1" xmlns="http://www.w3.org/2000/svg" xmlns:xlink="http://www.w3.org/1999/xlink">
    <!-- Generator: Sketch 43.1 (39012) - http://www.bohemiancoding.com/sketch -->
    <title>tengxunweibo</title>
    <desc>Created with Sketch.</desc>
    <defs>
        <path d="M19,177.783269 C19,174.488418 21.1595971,171 25.5833764,171 C30.0075774,171 32.0760844,174.969593 31.9078205,177.783269 C31.7694983,180.103539 29.9354644,183.868601 25.4859605,183.868601 C24.6184949,183.868601 23.3086514,183.694433 23.6249369,182.98005 C23.941644,182.266088 25.3033584,182.682741 25.4859605,182.682741 C28.5307352,182.682741 30.6059895,179.93654 30.7164786,177.783269 C30.8278111,175.629997 29.4698922,172.187125 25.4859605,172.187125 C21.4362415,172.187125 20.2174882,175.718979 20.2174882,177.783269 C20.2174882,179.0113 21.2224325,180.221197 20.584801,180.575015 C19.9471695,180.928833 19,179.836172 19,177.783269 Z M23.427153,177.267513 C23.427153,176.057194 24.3764311,175.165269 25.5833764,175.165269 C26.7907435,175.165269 27.6999587,176.057194 27.6999587,177.267513 C27.6999587,178.478253 26.7907435,179.430062 25.5833764,179.430062 C25.0836454,179.430062 24.6809086,179.339393 24.3186563,179.062327 C24.2225055,178.988949 22.2885254,181.20126 21.3261741,184.293267 C20.4869634,186.991815 20.8918088,189.42173 20.789754,190.227626 C20.6872775,191.033521 19.8678873,190.848389 19.7536028,190.227626 C19.6401618,189.606441 19.2319427,187.582636 20.269359,183.943244 C21.3063536,180.303431 23.6089117,178.152269 23.5836089,178.090277 C23.4819758,177.837248 23.427153,177.560182 23.427153,177.267513 Z" id="path-1"></path>
    </defs>
    <g id="注册登录" stroke="none" stroke-width="1" fill="none" fill-rule="evenodd">
        <g id="首页" transform="translate(-1584.000000, -961.000000)">
            <g id="分享" transform="translate(1565.000000, 790.000000)">
                <mask id="mask-2" fill="white">
                    <use xlink:href="#path-1"></use>
                </mask>
                <use id="tengxunweibo" fill="#474747" xlink:href="#path-1"></use>
            </g>
        </g>
    </g>
</svg>