<?xml version="1.0" encoding="UTF-8"?>
<svg width="18px" height="18px" viewBox="0 0 18 18" version="1.1" xmlns="http://www.w3.org/2000/svg" xmlns:xlink="http://www.w3.org/1999/xlink">
    <!-- Generator: Sketch 43.1 (39012) - http://www.bohemiancoding.com/sketch -->
    <title>time</title>
    <desc>Created with Sketch.</desc>
    <defs></defs>
    <g id="注册登录" stroke="none" stroke-width="1" fill="none" fill-rule="evenodd">
        <g id="首页" transform="translate(-1245.000000, -816.000000)" fill="#474747">
            <g id="联系方式" transform="translate(1229.000000, 621.000000)">
                <path d="M25,195 C20.05,195 16,199.05 16,204 C16,208.95 20.05,213 25,213 C29.95,213 34,208.95 34,204 C34,199.05 29.95,195 25,195 Z M31.0007544,204.749246 L25,204.749246 C24.55,204.749246 24.2507544,204.45 24.2507544,204 L24.2507544,197.909246 C24.2507544,197.459246 24.55,197.16 25,197.16 C25.45,197.16 25.7492456,197.459246 25.7492456,197.909246 L25.7492456,203.248491 L30.9984912,203.248491 C31.4484912,203.248491 31.7477588,203.547759 31.7477588,203.997759 C31.75,204.45 31.4507544,204.749246 31.0007544,204.749246 L31.0007544,204.749246 Z" id="time"></path>
            </g>
        </g>
    </g>
</svg>