<?xml version="1.0" encoding="UTF-8"?>
<svg width="22px" height="18px" viewBox="0 0 22 18" version="1.1" xmlns="http://www.w3.org/2000/svg" xmlns:xlink="http://www.w3.org/1999/xlink">
    <!-- Generator: Sketch 43.1 (39012) - http://www.bohemiancoding.com/sketch -->
    <title>wenxin</title>
    <desc>Created with Sketch.</desc>
    <defs>
        <path d="M15,22.8290752 C15,19.0572595 18.5393242,16 22.9063744,16 C27.0235149,16 30.4056508,18.7179144 30.7781275,22.190586 C34.2418421,22.3257723 37,24.721289 37,27.6567627 C37,29.4796098 35.9362926,31.0939627 34.300738,32.0887446 C33.9923305,32.2759559 34.9676941,33.8556254 34.6222777,33.9959353 C34.5152304,34.0396837 34.075899,33.7228039 33.6373634,33.4055299 C33.204797,33.0925914 32.7726286,32.7796529 32.661204,32.8131539 C31.9763404,33.0177069 31.2381521,33.1288513 30.4689241,33.1288513 C27.654258,33.1288513 25.2558426,31.6374667 24.3373851,29.5470059 C23.8729831,29.6199198 23.395051,29.6581503 22.9063744,29.6581503 C21.9306128,29.6581503 20.9966356,29.5056223 20.1338905,29.2269731 C19.9205919,29.1580005 19.4287316,29.5241464 18.9372694,29.8902924 C18.4290934,30.2686563 17.9213154,30.6470203 17.7215469,30.5449408 C17.4867593,30.4251256 18.4290934,28.463545 18.2110195,28.3244174 C16.2630779,27.0805459 15,25.0819172 15,22.8290752 Z M19.2524419,27.7253411 C19.1963317,28.2850045 19.0291947,28.668098 19.0291947,28.668098 C19.0291947,28.668098 19.4864337,28.1419356 19.8274727,27.8881165 C19.9786918,27.7753955 20.2592432,27.8597392 20.3376384,27.8881165 C21.1263657,28.1711012 21.994682,28.3279646 22.9063744,28.3279646 C23.2704942,28.3279646 23.6282469,28.3027403 23.9760509,28.2550507 C23.9505824,28.0583802 23.9374503,27.8589509 23.9374503,27.6567627 C23.9374503,24.9396366 26.3008465,22.6848239 29.3996455,22.2575879 C29.0470661,19.5116904 26.2741842,17.3739341 22.9063744,17.3739341 C19.2990015,17.3739341 16.3752985,19.8262054 16.3752985,22.8507523 C16.3752985,24.574673 17.3247956,26.2335624 18.809529,27.2378034 C18.8875262,27.2902226 19.2779104,27.4695513 19.2524419,27.7253411 Z M31.5,25.6206917 C31.5,26.000238 31.8080096,26.3076587 32.1876492,26.3076587 C32.5676869,26.3076587 32.8752985,26.000238 32.8752985,25.6206917 C32.8752985,25.2411453 32.5676869,24.9333305 32.1876492,24.9333305 C31.8080096,24.9333305 31.5,25.2411453 31.5,25.6206917 Z M27.3749005,25.6206917 C27.3749005,26.000238 27.6829101,26.3076587 28.0625497,26.3076587 C28.4421894,26.3076587 28.749801,26.000238 28.749801,25.6206917 C28.749801,25.2411453 28.4421894,24.9333305 28.0625497,24.9333305 C27.6829101,24.9333305 27.3749005,25.2411453 27.3749005,25.6206917 Z M24.6247015,20.4666652 C24.6247015,19.8971487 25.0867159,19.4356235 25.6561754,19.4356235 C26.2256349,19.4356235 26.6872513,19.8971487 26.6872513,20.4666652 C26.6872513,21.0357877 26.2256349,21.4973129 25.6561754,21.4973129 C25.0867159,21.4973129 24.6247015,21.0357877 24.6247015,20.4666652 Z M19.1247015,20.4666652 C19.1247015,19.8971487 19.5867159,19.4356235 20.1561754,19.4356235 C20.7256349,19.4356235 21.1872513,19.8971487 21.1872513,20.4666652 C21.1872513,21.0357877 20.7256349,21.4973129 20.1561754,21.4973129 C19.5867159,21.4973129 19.1247015,21.0357877 19.1247015,20.4666652 Z" id="path-1"></path>
    </defs>
    <g id="注册登录" stroke="none" stroke-width="1" fill="none" fill-rule="evenodd">
        <g id="首页" transform="translate(-1580.000000, -806.000000)">
            <g id="分享" transform="translate(1565.000000, 790.000000)">
                <mask id="mask-2" fill="white">
                    <use xlink:href="#path-1"></use>
                </mask>
                <use id="wenxin" fill="#474747" xlink:href="#path-1"></use>
            </g>
        </g>
    </g>
</svg>