<?xml version="1.0" encoding="UTF-8"?>
<svg width="19px" height="19px" viewBox="0 0 19 19" version="1.1" xmlns="http://www.w3.org/2000/svg" xmlns:xlink="http://www.w3.org/1999/xlink">
    <!-- Generator: Sketch 43.1 (39012) - http://www.bohemiancoding.com/sketch -->
    <title>Combined Shape</title>
    <desc>Created with Sketch.</desc>
    <defs>
        <path d="M22.0057143,55.5164561 C22.0057143,55.5164561 23.2232143,54.9655789 25.0635714,54.9655789 C26.9039286,54.9655789 28.1214286,55.4462807 28.1214286,55.4462807 L28.1214286,61.5855789 L22.0057143,55.5164561 Z M28.8310714,64.3985614 L28.8742857,55.8582105 C28.8742857,55.8582105 30.1317857,56.3147018 31.4328571,57.5929474 C32.7342857,58.8715439 33.2492857,60.0575088 33.2492857,60.0575088 L28.8310714,64.3985614 Z M27.3332143,66.9403158 L33.5110714,60.9315439 C33.5110714,60.9315439 34.0714286,62.1280351 34.0714286,63.9357544 C34.0714286,65.7438246 33.5821429,66.9403158 33.5821429,66.9403158 L27.3332143,66.9403158 Z M28.9246429,72.0634737 L24.5060714,67.7220702 L33.1992857,67.7648772 C33.1992857,67.7648772 32.7342857,69.0003158 31.4328571,70.2789123 C30.1317857,71.5575088 28.9246429,72.0634737 28.9246429,72.0634737 Z M22.0057143,72.4255789 L22.0057143,66.2859298 L28.1214286,72.3554035 C28.1214286,72.3554035 26.9039286,72.9062807 25.0635714,72.9062807 C23.2232143,72.9062807 22.0057143,72.4255789 22.0057143,72.4255789 Z M16.8775,67.8143509 L21.2964286,63.4736491 L21.2528571,72.0136491 C21.2528571,72.0136491 19.9953571,71.5575088 18.6939286,70.2789123 C17.3928571,69.0003158 16.8775,67.8143509 16.8775,67.8143509 Z M16.545,60.9315439 L22.7939286,60.9315439 L16.6164286,66.9403158 C16.6164286,66.9403158 16.0557143,65.7438246 16.0557143,63.9357544 C16.0557143,62.1280351 16.545,60.9315439 16.545,60.9315439 Z M18.6939286,57.5929474 C19.9953571,56.3147018 21.2021429,55.808386 21.2021429,55.808386 L25.6210714,60.1494386 L16.9282143,60.1069825 C16.9282143,60.1069825 17.3928571,58.8715439 18.6939286,57.5929474 Z" id="path-1"></path>
    </defs>
    <g id="注册登录" stroke="none" stroke-width="1" fill="none" fill-rule="evenodd">
        <g id="首页" transform="translate(-1581.000000, -844.000000)">
            <g id="分享" transform="translate(1565.000000, 790.000000)">
                <mask id="mask-2" fill="white">
                    <use xlink:href="#path-1"></use>
                </mask>
                <use id="Combined-Shape" fill="#474747" xlink:href="#path-1"></use>
            </g>
        </g>
    </g>
</svg>