<?xml version="1.0" encoding="UTF-8"?>
<svg width="20px" height="17px" viewBox="0 0 20 17" version="1.1" xmlns="http://www.w3.org/2000/svg" xmlns:xlink="http://www.w3.org/1999/xlink">
    <!-- Generator: Sketch 43.1 (39012) - http://www.bohemiancoding.com/sketch -->
    <title>xinlangweibo</title>
    <desc>Created with Sketch.</desc>
    <defs>
        <path d="M29.8941423,208.012175 C29.8941423,208.012175 30.0280691,208 30.2578752,208 C31.0781768,208 33.1175163,208.156755 34.610876,209.590761 C36.5223764,211.426167 35.9048674,214.72145 35.9048674,214.72145 C35.867581,215.06692 35.5453197,215.343905 35.1964252,215.343905 L34.9293326,215.343905 C34.5789162,215.343905 34.3407396,215.066159 34.3936255,214.723733 C34.3936255,214.723733 34.8890024,212.626181 33.7422543,210.954379 C32.5951258,209.282577 29.9028932,209.568313 29.9028932,209.568313 C29.5482916,209.574401 29.2694043,209.309591 29.2694043,208.962599 L29.2694043,208.652513 C29.2694043,208.30476 29.549433,208.019024 29.8941423,208.012175 Z M16,218.571845 C16,215.335535 21.9958866,210.225772 24.2901437,210.225772 C25.2519814,210.225772 27.1391315,210.954379 25.8185069,213.261572 C25.781601,213.326253 26.2518666,213.123841 26.9367194,212.921429 C27.9620963,212.618952 29.4691531,212.315714 30.4755063,212.908493 C32.1545372,213.896963 30.4755063,215.485061 30.4755063,215.661601 C30.4755063,215.838141 33.8468846,215.838141 33.8468846,218.571845 C33.8468846,221.807775 29.8812062,224.431522 24.9422758,224.431522 C20.0037258,224.431522 16,221.807775 16,218.571845 Z M18.940682,219.66761 C19.195219,221.480187 21.3445155,222.721673 23.9770137,222.721673 C24.3704236,222.721673 24.7741063,222.694279 25.1838766,222.636447 C28.3395263,222.192814 30.6596556,220.145104 30.3670712,218.06201 C30.0741064,215.978916 27.2795263,214.649921 24.1238766,215.093173 C20.9686074,215.536806 18.6477172,217.584516 18.940682,219.66761 Z M30.2601581,210.89122 C30.2601581,210.89122 30.5025199,210.829584 30.8613067,210.829584 C31.3528789,210.829584 32.0624625,210.945628 32.6647525,211.496174 C33.7072507,212.449641 33.2605745,214.188026 33.2605745,214.188026 C33.2232881,214.421256 32.9988085,214.602362 32.7674804,214.602362 L32.3885285,214.602362 C32.1602443,214.602362 32.0240346,214.4243 32.090998,214.204767 C32.090998,214.204767 32.5258796,213.120036 31.9700074,212.449641 C31.4137547,211.779246 30.2704309,211.93486 30.2704309,211.93486 C30.0318738,211.941328 29.8462026,211.767832 29.8462026,211.536884 L29.8462026,211.373281 C29.8462026,211.142714 30.0322543,210.926224 30.2601581,210.89122 Z M23.4831587,216.317538 C23.7460661,216.266174 24.0066907,216.241823 24.2616081,216.241823 C25.8272578,216.241823 27.174896,217.166755 27.4404667,218.532656 C27.749031,220.121134 26.477868,221.704286 24.6013712,222.06916 C22.7248744,222.433654 20.953008,221.442139 20.6440632,219.853661 C20.335499,218.265564 21.6066619,216.682032 23.4831587,216.317538 Z M24.0770783,218.571845 C24.0770783,218.895628 24.3350396,219.157775 24.6534961,219.157775 C24.9723332,219.157775 25.2310554,218.895628 25.2310554,218.571845 C25.2310554,218.248442 24.9723332,217.985915 24.6534961,217.985915 C24.3350396,217.985915 24.0770783,218.248442 24.0770783,218.571845 Z M21.9118019,220.185434 C22.0461092,220.473073 22.3638048,220.632111 22.7294401,220.632111 C22.9231013,220.632111 23.1296986,220.587595 23.3294473,220.494379 C23.9066261,220.225004 24.2083418,219.650108 24.0036469,219.21028 C23.798191,218.770072 23.1639412,218.63196 22.586382,218.901335 C22.0092032,219.17033 21.707107,219.745226 21.9118019,220.185434 Z" id="path-1"></path>
    </defs>
    <g id="注册登录" stroke="none" stroke-width="1" fill="none" fill-rule="evenodd">
        <g id="首页" transform="translate(-1581.000000, -998.000000)">
            <g id="分享" transform="translate(1565.000000, 790.000000)">
                <mask id="mask-2" fill="white">
                    <use xlink:href="#path-1"></use>
                </mask>
                <use id="xinlangweibo" fill="#474747" xlink:href="#path-1"></use>
            </g>
        </g>
    </g>
</svg>